<svg width="30" height="30" viewBox="0 0 30 30" fill="none" xmlns="http://www.w3.org/2000/svg">
<path fill-rule="evenodd" clip-rule="evenodd" d="M15.0166 4.64223L13.5199 2.9242C12.8184 2.10811 11.9831 1.45937 11.0623 1.01532C10.1414 0.571265 9.15315 0.340682 8.15434 0.336841C7.15554 0.333 6.16594 0.555978 5.24252 0.992937C4.3191 1.4299 3.4801 2.0722 2.77383 2.88288C2.06757 3.69355 1.50799 4.65658 1.1273 5.71651C0.746621 6.77644 0.55236 7.91233 0.555707 9.05879C0.559053 10.2053 0.759939 11.3396 1.1468 12.3966C1.53366 13.4536 2.09885 14.4123 2.80984 15.2175L14.9808 29.1877L14.9836 29.1846L15.0194 29.2257L27.1904 15.2554C27.9014 14.4502 28.4666 13.4915 28.8534 12.4345C29.2403 11.3776 29.4412 10.2432 29.4445 9.09672C29.4479 7.95026 29.2536 6.81437 28.8729 5.75444C28.4922 4.69451 27.9326 3.73148 27.2264 2.92081C26.5201 2.11013 25.6811 1.46783 24.7577 1.03087C23.8343 0.593911 22.8447 0.370932 21.8459 0.374773C20.8471 0.378614 19.8588 0.609198 18.9379 1.05325C18.0171 1.4973 17.1819 2.14604 16.4803 2.96213L15.0166 4.64223ZM14.9836 24.7149L21.7803 16.9118L23.7769 14.6991H23.7796L25.2434 13.0206C26.1472 11.9831 26.655 10.576 26.655 9.10879C26.655 7.64158 26.1472 6.23446 25.2434 5.19699C24.3395 4.15952 23.1136 3.57667 21.8354 3.57667C20.5571 3.57667 19.3312 4.15952 18.4274 5.19699L15.018 9.11195L15.0084 9.10088L11.5728 5.16064C10.669 4.12317 9.4431 3.54032 8.16485 3.54032C6.88661 3.54032 5.66072 4.12317 4.75686 5.16064C3.85301 6.19811 3.34523 7.60523 3.34523 9.07243C3.34523 10.5396 3.85301 11.9468 4.75686 12.9842L8.25436 16.9988L8.25573 16.994L14.9836 24.7165V24.7149Z" fill="#BF0000"/>
</svg>
