<svg width="21" height="21" viewBox="0 0 21 21" fill="none" xmlns="http://www.w3.org/2000/svg">
<path fill-rule="evenodd" clip-rule="evenodd" d="M10.5114 3.58066L9.47522 2.39126C8.98955 1.82627 8.41132 1.37714 7.77381 1.06972C7.1363 0.762303 6.45211 0.602668 5.76062 0.600009C5.06914 0.59735 4.38404 0.75172 3.74474 1.05423C3.10545 1.35674 2.52461 1.80141 2.03566 2.36265C1.5467 2.92389 1.1593 3.5906 0.89575 4.32439C0.632201 5.05819 0.497713 5.84458 0.500029 6.63828C0.502346 7.43199 0.641421 8.21732 0.909248 8.94908C1.17707 9.68083 1.56836 10.3445 2.06058 10.902L10.4867 20.5737L10.4886 20.5715L10.5133 20.6L18.9394 10.9283C19.4316 10.3708 19.8229 9.70709 20.0908 8.97534C20.3586 8.24358 20.4977 7.45825 20.5 6.66454C20.5023 5.87084 20.3678 5.08445 20.1042 4.35065C19.8407 3.61686 19.4533 2.95015 18.9643 2.38891C18.4754 1.82767 17.8945 1.383 17.2553 1.08049C16.616 0.777981 15.9309 0.623611 15.2394 0.62627C14.5479 0.628929 13.8637 0.788564 13.2262 1.09598C12.5887 1.4034 12.0104 1.85253 11.5248 2.41752L10.5114 3.58066ZM10.4886 17.4771L15.194 12.075L16.5762 10.5431H16.5781L17.5915 9.38106C18.2172 8.66281 18.5688 7.68865 18.5688 6.67289C18.5688 5.65714 18.2172 4.68298 17.5915 3.96473C16.9657 3.24648 16.117 2.84297 15.2321 2.84297C14.3472 2.84297 13.4985 3.24648 12.8727 3.96473L10.5124 6.67508L10.5057 6.66742L8.12728 3.93956C7.50153 3.22131 6.65284 2.8178 5.7679 2.8178C4.88296 2.8178 4.03427 3.22131 3.40852 3.93956C2.78278 4.65781 2.43124 5.63197 2.43124 6.64773C2.43124 7.66349 2.78278 8.63764 3.40852 9.35589L5.82986 12.1352L5.83082 12.1319L10.4886 17.4782V17.4771Z" fill="#BF0000"/>
</svg>
