<svg width="88" height="78" viewBox="0 0 88 78" fill="none" xmlns="http://www.w3.org/2000/svg">
<g clip-path="url(#clip0_308_289)">
<path d="M58.8306 41.2766C57.2383 41.2766 56.0687 40.8687 55.3219 40.0529C54.5751 39.2372 54.2017 37.8847 54.2017 35.9955C54.2017 34.4928 54.4482 32.8756 54.9414 31.1439C55.4487 29.4122 56.252 27.9309 57.3511 26.7001C58.4643 25.4549 59.8734 24.8323 61.5785 24.8323C62.6353 24.8323 63.4878 25.0685 64.136 25.5408C64.7842 26.0131 65.1083 26.7358 65.1083 27.709C65.1083 28.3244 64.9885 28.811 64.749 29.1688C64.5094 29.5123 64.136 29.6841 63.6287 29.6841C63.1214 29.6841 62.7198 29.498 62.4239 29.1259C62.6776 28.9971 62.903 28.7395 63.1003 28.3531C63.2976 27.9667 63.3962 27.5659 63.3962 27.1509C63.3962 26.7644 63.2905 26.4496 63.0791 26.2063C62.8819 25.9629 62.5577 25.8414 62.1069 25.8414C61.36 25.8414 60.6484 26.3637 59.972 27.4084C59.2957 28.4389 58.7461 29.7413 58.3233 31.3156C57.9147 32.8899 57.7104 34.407 57.7104 35.8668C57.7104 36.9544 57.8936 37.7845 58.2599 38.357C58.6263 38.9295 59.2886 39.2157 60.2468 39.2157C61.0782 39.2157 61.8462 39.0297 62.5507 38.6576C63.2553 38.2855 63.8612 37.7559 64.3685 37.0689L64.8546 37.2836C64.5024 38.1853 63.981 38.9366 63.2905 39.5377C62.6 40.1389 61.8603 40.5825 61.0712 40.8687C60.282 41.1406 59.5352 41.2766 58.8306 41.2766Z" fill="#7F5539"/>
<path d="M66.6316 41.019C66.1665 41.019 65.772 40.8544 65.448 40.5253C65.1238 40.1961 64.9618 39.7953 64.9618 39.3231C64.9618 38.8508 65.1238 38.45 65.448 38.1208C65.772 37.7774 66.1665 37.6057 66.6316 37.6057C67.0966 37.6057 67.4912 37.7774 67.8152 38.1208C68.1534 38.45 68.3226 38.8508 68.3226 39.3231C68.3226 39.7953 68.1534 40.1961 67.8152 40.5253C67.4912 40.8544 67.0966 41.019 66.6316 41.019Z" fill="#7F5539"/>
<path d="M48.0706 59.054C46.4782 59.054 45.3087 58.6462 44.5618 57.8304C43.815 57.0146 43.4415 55.6621 43.4415 53.773C43.4415 52.2703 43.6882 50.653 44.1814 48.9213C44.6887 47.1895 45.4918 45.7083 46.5909 44.4775C47.7041 43.2324 49.1133 42.6098 50.8183 42.6098C51.8751 42.6098 52.7277 42.846 53.3759 43.3183C54.0241 43.7905 54.3482 44.5132 54.3482 45.4865C54.3482 46.1019 54.2284 46.5884 53.9889 46.9463C53.7493 47.2897 53.3759 47.4615 52.8686 47.4615C52.3613 47.4615 51.9597 47.2754 51.6638 46.9033C51.9174 46.7745 52.1429 46.5169 52.3402 46.1305C52.5375 45.744 52.6361 45.3434 52.6361 44.9283C52.6361 44.5419 52.5304 44.227 52.3191 43.9838C52.1218 43.7404 51.7977 43.6188 51.3467 43.6188C50.5999 43.6188 49.8883 44.1412 49.212 45.1859C48.5355 46.2164 47.986 47.5187 47.5633 49.093C47.1546 50.6673 46.9503 52.1843 46.9503 53.6442C46.9503 54.7319 47.1334 55.5619 47.4999 56.1345C47.8662 56.7069 48.5285 56.9932 49.4867 56.9932C50.3181 56.9932 51.086 56.8071 51.7906 56.435C52.4952 56.0629 53.1011 55.5334 53.6084 54.8464L54.0945 55.0611C53.7423 55.9627 53.2209 56.7141 52.5304 57.3151C51.8399 57.9163 51.1001 58.3599 50.3111 58.6461C49.5219 58.9181 48.7751 59.054 48.0706 59.054Z" fill="#7F5539"/>
<path d="M55.8715 58.7965C55.4065 58.7965 55.0119 58.6319 54.6878 58.3027C54.3637 57.9735 54.2017 57.5728 54.2017 57.1005C54.2017 56.6282 54.3637 56.2275 54.6878 55.8983C55.0119 55.5548 55.4065 55.3831 55.8715 55.3831C56.3365 55.3831 56.7311 55.5548 57.0552 55.8983C57.3933 56.2275 57.5624 56.6282 57.5624 57.1005C57.5624 57.5728 57.3933 57.9735 57.0552 58.3027C56.7311 58.6319 56.3365 58.7965 55.8715 58.7965Z" fill="#7F5539"/>
<path d="M38.3588 77.9221C37.5133 77.9221 36.6538 77.5429 35.7801 76.7844L35.611 77.6431H32.5673L35.442 63.9896L38.5702 63.5603L36.0338 75.6036C36.4283 75.8899 36.8299 76.033 37.2386 76.033C38.0418 76.033 38.7463 75.5607 39.3523 74.6161C39.9723 73.6715 40.4514 72.4694 40.7896 71.0096C41.1277 69.5498 41.2968 68.0756 41.2968 66.5872C41.2968 65.1846 41.0221 64.1614 40.4725 63.5173C39.9371 62.859 39.1831 62.5298 38.2109 62.5298C37.154 62.5298 36.2028 62.7445 35.3574 63.1738C34.526 63.5889 33.8708 64.1899 33.3916 64.9771C32.9126 65.7643 32.673 66.6873 32.673 67.7464C32.673 68.276 32.7223 68.6481 32.8209 68.8628C32.9196 69.0632 32.9689 69.1777 32.9689 69.2062C32.2362 69.2062 31.6725 69.0488 31.278 68.7339C30.8975 68.4191 30.7073 67.9111 30.7073 67.2098C30.7073 66.2365 31.0666 65.3135 31.7853 64.4404C32.5039 63.5674 33.4621 62.8661 34.6599 62.3365C35.8717 61.807 37.1752 61.5423 38.5702 61.5423C40.5007 61.5423 41.9239 62.1219 42.8398 63.2812C43.7557 64.4404 44.2137 65.9217 44.2137 67.725C44.2137 69.3565 43.9389 70.9666 43.3894 72.5552C42.8539 74.1295 42.1353 75.4176 41.2334 76.4194C40.3316 77.4212 39.3734 77.9221 38.3588 77.9221Z" fill="#7F5539"/>
<path d="M47.682 77.729C46.6392 77.729 45.8149 77.457 45.209 76.9131C44.603 76.3693 44.3 75.5106 44.3 74.337C44.3 73.3638 44.4973 72.2833 44.8919 71.0954C45.2864 69.9075 45.9205 68.8843 46.7942 68.0256C47.6679 67.1526 48.7669 66.716 50.0915 66.716C51.8952 66.716 52.7971 67.8609 52.7971 70.1509V70.1723C52.8393 70.1866 52.9168 70.1938 53.0296 70.1938C53.4945 70.1938 54.03 70.0721 54.6359 69.8288C55.2419 69.5713 55.7914 69.2635 56.2846 68.9057L56.4749 69.4853C56.0662 69.929 55.5308 70.3083 54.8684 70.6232C54.2203 70.9237 53.5086 71.1383 52.7337 71.2672C52.6209 72.5695 52.332 73.7074 51.867 74.6806C51.402 75.6537 50.8032 76.4051 50.0704 76.9346C49.3377 77.4642 48.5415 77.729 47.682 77.729ZM48.5274 75.7969C48.8656 75.7969 49.2038 75.6036 49.542 75.2172C49.8801 74.8165 50.1761 74.2798 50.4297 73.6072C50.6834 72.9202 50.8666 72.1617 50.9793 71.3315C50.5988 71.2457 50.4086 70.9451 50.4086 70.43C50.4086 69.8432 50.627 69.4567 51.0639 69.2707C51.0357 68.7984 50.9652 68.4764 50.8525 68.3047C50.7397 68.1186 50.5425 68.0256 50.2607 68.0256C49.7956 68.0256 49.3447 68.369 48.9079 69.056C48.471 69.743 48.1188 70.5659 47.851 71.5248C47.5833 72.4836 47.4495 73.3281 47.4495 74.058C47.4495 74.7449 47.5269 75.2101 47.682 75.4534C47.8369 75.6823 48.1188 75.7969 48.5274 75.7969Z" fill="#7F5539"/>
<path d="M61.515 77.7719C60.6554 77.7719 60.0213 77.5429 59.6127 77.085C59.2181 76.6127 59.0209 76.033 59.0209 75.3461C59.0209 75.0455 59.0561 74.7092 59.1265 74.3371C59.197 73.9506 59.2674 73.5785 59.3379 73.2208C59.4225 72.8629 59.4788 72.634 59.507 72.5338C59.6198 72.0329 59.7254 71.5391 59.824 71.0525C59.9227 70.5659 59.972 70.1723 59.972 69.8718C59.972 69.1419 59.7184 68.7769 59.2111 68.7769C58.8447 68.7769 58.5206 68.963 58.2388 69.3351C57.957 69.6929 57.7315 70.1651 57.5624 70.7519L56.1251 77.6431H53.0814L55.3219 66.9092H58.3656L58.1331 68.0256C58.8377 67.2241 59.662 66.8234 60.6061 66.8234C61.3248 66.8234 61.8955 67.0237 62.3182 67.4245C62.741 67.8252 62.9523 68.4334 62.9523 69.2492C62.9523 69.6643 62.903 70.1294 62.8044 70.6446C62.7057 71.1455 62.5648 71.761 62.3816 72.4908C62.2689 72.9345 62.1632 73.371 62.0645 73.8004C61.98 74.2154 61.9378 74.5446 61.9378 74.7879C61.9378 75.0741 62.0011 75.2959 62.128 75.4534C62.2548 75.6108 62.4732 75.6895 62.7832 75.6895C63.2059 75.6895 63.5442 75.5393 63.7978 75.2387C64.0514 74.9238 64.305 74.4444 64.5587 73.8004H65.4464C64.9251 75.3746 64.3191 76.4337 63.6287 76.9776C62.9523 77.5071 62.2478 77.7719 61.515 77.7719Z" fill="#7F5539"/>
<path d="M66.6488 77.7719C65.9723 77.7719 65.4228 77.5573 65.0001 77.1279C64.5914 76.6986 64.3871 76.0545 64.3871 75.1958C64.3871 74.838 64.4435 74.3729 64.5562 73.8004L65.9935 66.9092H69.0372L67.5154 74.2082C67.4731 74.4229 67.452 74.6233 67.452 74.8094C67.452 75.3961 67.6633 75.6895 68.0861 75.6895C68.4806 75.6895 68.8188 75.525 69.1006 75.1958C69.3825 74.8523 69.6079 74.3872 69.777 73.8004L71.2143 66.9092H74.258L72.7362 74.2082C72.6798 74.4229 72.6516 74.6519 72.6516 74.8952C72.6516 75.1814 72.715 75.389 72.8419 75.5178C72.9827 75.6323 73.2082 75.6895 73.5182 75.6895C73.9128 75.6895 74.251 75.5178 74.5328 75.1743C74.8287 74.8308 75.0613 74.3729 75.2303 73.8004H76.1181C75.5967 75.3461 74.9485 76.398 74.1735 76.9561C73.4126 77.5 72.6446 77.7719 71.8695 77.7719C71.2636 77.7719 70.7775 77.6001 70.4111 77.2567C70.0588 76.9132 69.8474 76.4052 69.777 75.7325C69.2979 76.5197 68.7906 77.0563 68.2552 77.3426C67.7338 77.6288 67.1983 77.7719 66.6488 77.7719Z" fill="#7F5539"/>
<path d="M77.3204 77.7719C76.644 77.7719 76.0945 77.5572 75.6717 77.1278C75.2631 76.6985 75.0587 76.0544 75.0587 75.1957C75.0587 74.8379 75.1151 74.3728 75.2279 73.8004L76.496 67.7679H75.7986L75.9676 66.9092H76.6652L77.2992 63.9467L80.4274 63.5173L79.7085 66.9092H80.9769L80.8081 67.7679H79.5397L78.1873 74.2082C78.1303 74.4229 78.1026 74.6519 78.1026 74.8952C78.1026 75.1814 78.1658 75.3889 78.2929 75.5177C78.4339 75.6323 78.6589 75.6895 78.9687 75.6895C79.3779 75.6895 79.7578 75.5178 80.1107 75.1742C80.4629 74.8165 80.7164 74.3585 80.8713 73.8004H81.759C81.2381 75.346 80.5685 76.3979 79.7509 76.9561C78.934 77.4999 78.1234 77.7719 77.3204 77.7719Z" fill="#7F5539"/>
<path d="M83.2725 77.7719C82.5959 77.7719 82.0257 77.6431 81.5603 77.3855C81.0956 77.1135 80.7504 76.7701 80.5246 76.355C80.2996 75.9257 80.1863 75.482 80.1863 75.024C80.1863 74.5517 80.2996 74.1438 80.5246 73.8004C80.7365 73.4425 80.9969 73.1849 81.3067 73.0275C81.8562 72.0257 82.3355 71.0167 82.7439 70.0006C83.1531 68.9701 83.5407 67.8609 83.9067 66.6731L87.0353 66.2437C87.1054 68.0756 87.2249 70.0579 87.3944 72.1902C87.4645 73.049 87.5 73.6715 87.5 74.058C87.5 74.931 87.2819 75.6466 86.845 76.2047C86.4081 76.7629 85.8656 77.1636 85.2175 77.4069C84.5833 77.6502 83.9352 77.7719 83.2725 77.7719ZM82.5959 76.0759C83.1176 76.0759 83.5545 75.9185 83.9067 75.6036C84.2589 75.2888 84.4353 74.7807 84.4353 74.0794C84.4353 73.6501 84.3929 73.049 84.3082 72.2762C84.1672 70.6446 84.0755 69.5498 84.0339 68.9916C83.6956 70.1222 83.1246 71.4747 82.3216 73.0489C82.6452 73.2207 82.8078 73.4712 82.8078 73.8004C82.8078 74.0723 82.7161 74.3155 82.5327 74.5302C82.364 74.7449 82.1451 74.8523 81.8777 74.8523C81.5818 74.8523 81.3915 74.7593 81.3067 74.5732C81.3067 75.0884 81.4054 75.4676 81.6026 75.711C81.8138 75.9542 82.1451 76.0759 82.5959 76.0759Z" fill="#7F5539"/>
<path d="M50.8569 26.9333C46.9178 24.5582 42.2059 23.8611 37.758 24.9953C33.31 26.1296 29.4903 29.0023 27.1391 32.9815C24.7879 36.9609 24.0978 41.7207 25.2206 46.2139C26.3435 50.7072 29.1872 54.5657 33.1263 56.9409L41.9916 41.9371L50.8569 26.9333Z" fill="#E8C2CA"/>
<path d="M28.1537 65.1377C25.1135 63.3222 22.4592 60.9168 20.3435 58.0603C18.2278 55.2038 16.6926 51.9526 15.8264 48.494C14.9602 45.0354 14.7801 41.4379 15.2965 37.9086C15.8129 34.3794 17.0156 30.9883 18.8352 27.9308C20.6548 24.8732 23.0554 22.2096 25.8987 20.0936C28.742 17.9774 31.9716 16.4507 35.4017 15.6012C38.8317 14.7518 42.3942 14.5964 45.8839 15.1441C49.3737 15.6919 52.7216 16.9318 55.7348 18.7926L51.0671 26.5061C49.0614 25.2676 46.8329 24.4423 44.51 24.0776C42.1871 23.7131 39.8157 23.8165 37.5326 24.3819C35.2494 24.9473 33.0996 25.9636 31.2071 27.3722C29.3144 28.7807 27.7165 30.5537 26.5053 32.5889C25.2941 34.6241 24.4935 36.8814 24.1498 39.2306C23.806 41.5798 23.9259 43.9744 24.5025 46.2766C25.0791 48.5787 26.1009 50.7429 27.5093 52.6443C28.9175 54.5457 30.6844 56.1468 32.708 57.3553L28.1537 65.1377Z" fill="#D1B3C4"/>
<path d="M20.7838 77.9463C11.3518 72.2563 4.53984 63.0183 1.84281 52.26C-0.854233 41.5018 0.783985 30.102 6.39794 20.5625C12.0119 11.0231 21.143 4.12314 31.7873 1.377C42.4316 -1.36915 53.7197 0.262811 63.1742 5.91475L56.1114 17.9715C49.8181 14.2093 42.3042 13.123 35.219 14.951C28.1337 16.7789 22.0557 21.3718 18.3188 27.7216C14.582 34.0715 13.4915 41.6596 15.2868 48.8207C17.082 55.9818 21.6164 62.1309 27.8946 65.9187L20.7838 77.9463Z" fill="#B392AC"/>
</g>
<defs>
<clipPath id="clip0_308_289">
<rect width="87" height="78" fill="white" transform="translate(0.5)"/>
</clipPath>
</defs>
</svg>
