<svg width="39" height="33" viewBox="0 0 39 33" fill="none" xmlns="http://www.w3.org/2000/svg">
<g clip-path="url(#clip0_559_1466)">
<path d="M34.6588 8.41071C34.6823 8.7511 34.6824 9.09149 34.6824 9.43502C34.6824 19.9025 26.7137 31.9746 12.1427 31.9746V31.9684C7.83843 31.9746 3.62353 30.7417 0 28.417C0.625882 28.4923 1.2549 28.5299 1.88549 28.5315C5.45255 28.5346 8.91765 27.3378 11.7239 25.1338C8.33412 25.0695 5.36157 22.8593 4.32314 19.6327C5.51059 19.8617 6.73412 19.8146 7.89961 19.4962C4.20392 18.7495 1.5451 15.5025 1.5451 11.7315C1.5451 11.697 1.5451 11.664 1.5451 11.6311C2.64627 12.2444 3.87922 12.5848 5.14039 12.6225C1.65961 10.2962 0.586667 5.66561 2.68863 2.04522C6.71059 6.99424 12.6447 10.0029 19.0149 10.3213C18.3765 7.56992 19.2486 4.68678 21.3067 2.75267C24.4973 -0.24655 29.5153 -0.092824 32.5145 3.0962C34.2886 2.74639 35.989 2.09541 37.5451 1.17306C36.9537 3.00678 35.7161 4.56443 34.0627 5.55424C35.6329 5.36914 37.1671 4.94874 38.6118 4.30718C37.5482 5.9009 36.2086 7.28914 34.6588 8.41071Z" fill="#1D9BF0"/>
</g>
<defs>
<clipPath id="clip0_559_1466">
<rect width="38.902" height="32" fill="white" transform="translate(0 0.600098)"/>
</clipPath>
</defs>
</svg>
